Italic_wght400.ufo
<glyph name="slash" format="2">
  <advance width="1000"/>
  <unicode hex="002F"/>
  <outline>
    <contour>
      <point x="878" y="1424" type="line" smooth="yes"/>
      <point x="888" y="1450"/>
      <point x="888" y="1458"/>
      <point x="888" y="1460" type="curve" smooth="yes"/>
      <point x="888" y="1482"/>
      <point x="870" y="1500"/>
      <point x="848" y="1500" type="curve" smooth="yes"/>
      <point x="834" y="1500"/>
      <point x="820" y="1494"/>
      <point x="814" y="1482" type="curve"/>
      <point x="120" y="-424" type="line" smooth="yes"/>
      <point x="110" y="-450"/>
      <point x="110" y="-458"/>
      <point x="110" y="-460" type="curve" smooth="yes"/>
      <point x="110" y="-482"/>
      <point x="128" y="-500"/>
      <point x="150" y="-500" type="curve" smooth="yes"/>
      <point x="176" y="-500"/>
      <point x="182" y="-486"/>
      <point x="194" y="-452" type="curve" smooth="yes"/>
    </contour>
  </outline>
</glyph>
<glyph name="five" format="2">
  <advance width="1000"/>
  <unicode hex="0035"/>
  <outline>
    <contour>
      <point x="464" y="-432" type="curve" smooth="yes"/>
      <point x="698" y="-432"/>
      <point x="898" y="-242"/>
      <point x="898" y="2" type="curve" smooth="yes"/>
      <point x="898" y="232"/>
      <point x="734" y="428"/>
      <point x="520" y="428" type="curve" smooth="yes"/>
      <point x="424" y="428"/>
      <point x="334" y="396"/>
      <point x="264" y="328" type="curve"/>
      <point x="264" y="714" type="line"/>
      <point x="348" y="688"/>
      <point x="410" y="688"/>
      <point x="438" y="688" type="curve" smooth="yes"/>
      <point x="478" y="688"/>
      <point x="570" y="688"/>
      <point x="680" y="750" type="curve" smooth="yes"/>
      <point x="738" y="784"/>
      <point x="820" y="858"/>
      <point x="820" y="884" type="curve" smooth="yes"/>
      <point x="820" y="896"/>
      <point x="814" y="906"/>
      <point x="800" y="906" type="curve" smooth="yes"/>
      <point x="798" y="906"/>
      <point x="794" y="906"/>
      <point x="784" y="900" type="curve"/>
      <point x="738" y="882"/>
      <point x="646" y="844"/>
      <point x="510" y="844" type="curve" smooth="yes"/>
      <point x="386" y="844"/>
      <point x="296" y="876"/>
      <point x="242" y="898" type="curve" smooth="yes"/>
      <point x="228" y="904"/>
      <point x="224" y="904"/>
      <point x="220" y="904" type="curve" smooth="yes"/>
      <point x="202" y="904"/>
      <point x="202" y="890"/>
      <point x="202" y="854" type="curve" smooth="yes"/>
      <point x="202" y="286" type="line" smooth="yes"/>
      <point x="202" y="246"/>
      <point x="202" y="230"/>
      <point x="228" y="230" type="curve" smooth="yes"/>
      <point x="244" y="230"/>
      <point x="250" y="238"/>
      <point x="260" y="254" type="curve"/>
      <point x="334" y="360"/>
      <point x="444" y="384"/>
      <point x="518" y="384" type="curve" smooth="yes"/>
      <point x="608" y="384"/>
      <point x="664" y="316"/>
      <point x="690" y="260" type="curve" smooth="yes"/>
      <point x="720" y="194"/>
      <point x="730" y="126"/>
      <point x="730" y="12" type="curve" smooth="yes"/>
      <point x="730" y="-88"/>
      <point x="724" y="-180"/>
      <point x="670" y="-264" type="curve" smooth="yes"/>
      <point x="630" y="-324"/>
      <point x="556" y="-376"/>
      <point x="460" y="-376" type="curve" smooth="yes"/>
      <point x="340" y="-376"/>
      <point x="206" y="-300"/>
      <point x="164" y="-158" type="curve"/>
      <point x="246" y="-178"/>
      <point x="290" y="-120"/>
      <point x="290" y="-68" type="curve" smooth="yes"/>
      <point x="290" y="-30"/>
      <point x="264" y="26"/>
      <point x="194" y="26" type="curve" smooth="yes"/>
      <point x="162" y="26"/>
      <point x="100" y="10"/>
      <point x="100" y="-76" type="curve" smooth="yes"/>
      <point x="100" y="-246"/>
      <point x="244" y="-432"/>
    </contour>
  </outline>
</glyph>
<glyph name="less" format="2">
  <advance width="1554"/>
  <unicode hex="003C"/>
  <outline>
    <contour>
      <point x="1350" y="996" type="line" smooth="yes"/>
      <point x="1374" y="1008"/>
      <point x="1388" y="1018"/>
      <point x="1388" y="1040" type="curve" smooth="yes"/>
      <point x="1388" y="1062"/>
      <point x="1370" y="1080"/>
      <point x="1348" y="1080" type="curve" smooth="yes"/>
      <point x="1342" y="1080"/>
      <point x="1338" y="1080"/>
      <point x="1312" y="1066" type="curve"/>
      <point x="204" y="544" type="line" smooth="yes"/>
      <point x="182" y="534"/>
      <point x="166" y="524"/>
      <point x="166" y="500" type="curve" smooth="yes"/>
      <point x="166" y="476"/>
      <point x="182" y="466"/>
      <point x="204" y="456" type="curve" smooth="yes"/>
      <point x="1312" y="-66" type="line"/>
      <point x="1338" y="-80"/>
      <point x="1342" y="-80"/>
      <point x="1348" y="-80" type="curve" smooth="yes"/>
      <point x="1370" y="-80"/>
      <point x="1388" y="-62"/>
      <point x="1388" y="-40" type="curve" smooth="yes"/>
      <point x="1388" y="-18"/>
      <point x="1374" y="-8"/>
      <point x="1350" y="4" type="curve" smooth="yes"/>
      <point x="300" y="500" type="line"/>
    </contour>
  </outline>
</glyph>
<glyph name="B" format="2">
  <advance width="1516"/>
  <unicode hex="0042"/>
  <outline>
    <contour>
      <point x="1404" y="432" type="curve" smooth="yes"/>
      <point x="1404" y="576"/>
      <point x="1288" y="692"/>
      <point x="1094" y="714" type="curve"/>
      <point x="1302" y="752"/>
      <point x="1512" y="900"/>
      <point x="1512" y="1090" type="curve" smooth="yes"/>
      <point x="1512" y="1238"/>
      <point x="1380" y="1366"/>
      <point x="1140" y="1366" type="curve" smooth="yes"/>
      <point x="468" y="1366" type="line" smooth="yes"/>
      <point x="430" y="1366"/>
      <point x="410" y="1366"/>
      <point x="410" y="1326" type="curve" smooth="yes"/>
      <point x="410" y="1304"/>
      <point x="428" y="1304"/>
      <point x="466" y="1304" type="curve" smooth="yes"/>
      <point x="470" y="1304"/>
      <point x="508" y="1304"/>
      <point x="542" y="1300" type="curve" smooth="yes"/>
      <point x="578" y="1296"/>
      <point x="596" y="1294"/>
      <point x="596" y="1268" type="curve" smooth="yes"/>
      <point x="596" y="1260"/>
      <point x="594" y="1254"/>
      <point x="588" y="1230" type="curve" smooth="yes"/>
      <point x="320" y="156" type="line" smooth="yes"/>
      <point x="300" y="78"/>
      <point x="296" y="62"/>
      <point x="138" y="62" type="curve" smooth="yes"/>
      <point x="104" y="62"/>
      <point x="84" y="62"/>
      <point x="84" y="22" type="curve" smooth="yes"/>
      <point x="84" y="0"/>
      <point x="102" y="0"/>
      <point x="138" y="0" type="curve" smooth="yes"/>
      <point x="852" y="0" type="line" smooth="yes"/>
      <point x="1168" y="0"/>
      <point x="1404" y="236"/>
    </contour>
    <contour>
      <point x="1330" y="1098" type="curve" smooth="yes"/>
      <point x="1330" y="922"/>
      <point x="1158" y="732"/>
      <point x="914" y="732" type="curve" smooth="yes"/>
      <point x="622" y="732" type="line"/>
      <point x="746" y="1228" type="line" smooth="yes"/>
      <point x="764" y="1298"/>
      <point x="768" y="1304"/>
      <point x="854" y="1304" type="curve" smooth="yes"/>
      <point x="1112" y="1304" type="line" smooth="yes"/>
      <point x="1288" y="1304"/>
      <point x="1330" y="1186"/>
    </contour>
    <contour>
      <point x="1218" y="454" type="curve" smooth="yes"/>
      <point x="1218" y="256"/>
      <point x="1040" y="62"/>
      <point x="804" y="62" type="curve" smooth="yes"/>
      <point x="530" y="62" type="line" smooth="yes"/>
      <point x="446" y="62"/>
      <point x="458" y="72"/>
      <point x="472" y="130" type="curve" smooth="yes"/>
      <point x="610" y="688" type="line"/>
      <point x="988" y="688" type="line" smooth="yes"/>
      <point x="1180" y="688"/>
      <point x="1218" y="540"/>
    </contour>
  </outline>
</glyph>
<glyph name="C" format="2">
  <advance width="1428"/>
  <unicode hex="0043"/>
  <outline>
    <contour>
      <point x="100" y="504" type="curve" smooth="yes"/>
      <point x="100" y="174"/>
      <point x="336" y="-44"/>
      <point x="642" y="-44" type="curve" smooth="yes"/>
      <point x="816" y="-44"/>
      <point x="968" y="36"/>
      <point x="1074" y="128" type="curve" smooth="yes"/>
      <point x="1260" y="292"/>
      <point x="1294" y="474"/>
      <point x="1294" y="480" type="curve" smooth="yes"/>
      <point x="1294" y="500"/>
      <point x="1274" y="500"/>
      <point x="1270" y="500" type="curve" smooth="yes"/>
      <point x="1258" y="500"/>
      <point x="1248" y="496"/>
      <point x="1244" y="480" type="curve"/>
      <point x="1226" y="422"/>
      <point x="1180" y="280"/>
      <point x="1042" y="164" type="curve" smooth="yes"/>
      <point x="904" y="52"/>
      <point x="778" y="18"/>
      <point x="674" y="18" type="curve" smooth="yes"/>
      <point x="494" y="18"/>
      <point x="282" y="122"/>
      <point x="282" y="434" type="curve" smooth="yes"/>
      <point x="282" y="548"/>
      <point x="324" y="872"/>
      <point x="524" y="1106" type="curve" smooth="yes"/>
      <point x="646" y="1248"/>
      <point x="834" y="1348"/>
      <point x="1012" y="1348" type="curve" smooth="yes"/>
      <point x="1216" y="1348"/>
      <point x="1334" y="1194"/>
      <point x="1334" y="962" type="curve" smooth="yes"/>
      <point x="1334" y="882"/>
      <point x="1328" y="880"/>
      <point x="1328" y="860" type="curve" smooth="yes"/>
      <point x="1328" y="840"/>
      <point x="1350" y="840"/>
      <point x="1358" y="840" type="curve" smooth="yes"/>
      <point x="1384" y="840"/>
      <point x="1386" y="844"/>
      <point x="1394" y="880" type="curve" smooth="yes"/>
      <point x="1520" y="1390" type="line"/>
      <point x="1520" y="1390"/>
      <point x="1520" y="1390"/>
      <point x="1520" y="1390" type="curve"/>
      <point x="1520" y="1396"/>
      <point x="1516" y="1410"/>
      <point x="1498" y="1410" type="curve" smooth="yes"/>
      <point x="1492" y="1410"/>
      <point x="1490" y="1410"/>
      <point x="1468" y="1386" type="curve" smooth="yes"/>
      <point x="1328" y="1232" type="line"/>
      <point x="1328" y="1232"/>
      <point x="1328" y="1232"/>
      <point x="1328" y="1232" type="curve"/>
      <point x="1328" y="1232"/>
      <point x="1328" y="1232"/>
      <point x="1328" y="1232" type="curve"/>
      <point x="1310" y="1260"/>
      <point x="1218" y="1410"/>
      <point x="996" y="1410" type="curve" smooth="yes"/>
      <point x="550" y="1410"/>
      <point x="100" y="968"/>
    </contour>
  </outline>
</glyph>
<glyph name="G" format="2">
  <advance width="1572"/>
  <unicode hex="0047"/>
  <outline>
    <contour>
      <point x="100" y="504" type="curve" smooth="yes"/>
      <point x="100" y="186"/>
      <point x="322" y="-44"/>
      <point x="646" y="-44" type="curve" smooth="yes"/>
      <point x="856" y="-44"/>
      <point x="1012" y="48"/>
      <point x="1070" y="126" type="curve"/>
      <point x="1088" y="76"/>
      <point x="1140" y="2"/>
      <point x="1160" y="2" type="curve" smooth="yes"/>
      <point x="1174" y="2"/>
      <point x="1178" y="12"/>
      <point x="1182" y="30" type="curve" smooth="yes"/>
      <point x="1254" y="316"/>
      <point x="1264" y="354"/>
      <point x="1272" y="388" type="curve" smooth="yes"/>
      <point x="1294" y="478"/>
      <point x="1296" y="482"/>
      <point x="1410" y="484" type="curve" smooth="yes"/>
      <point x="1420" y="484"/>
      <point x="1442" y="486"/>
      <point x="1442" y="524" type="curve" smooth="yes"/>
      <point x="1442" y="538"/>
      <point x="1432" y="546"/>
      <point x="1416" y="546" type="curve" smooth="yes"/>
      <point x="1370" y="546"/>
      <point x="1260" y="540"/>
      <point x="1214" y="540" type="curve" smooth="yes"/>
      <point x="1192" y="540"/>
      <point x="1106" y="542"/>
      <point x="1096" y="542" type="curve" smooth="yes"/>
      <point x="1022" y="544"/>
      <point x="966" y="546"/>
      <point x="926" y="546" type="curve" smooth="yes"/>
      <point x="908" y="546"/>
      <point x="884" y="546"/>
      <point x="884" y="506" type="curve" smooth="yes"/>
      <point x="884" y="484"/>
      <point x="900" y="484"/>
      <point x="944" y="484" type="curve" smooth="yes"/>
      <point x="946" y="484"/>
      <point x="1004" y="484"/>
      <point x="1050" y="480" type="curve" smooth="yes"/>
      <point x="1102" y="474"/>
      <point x="1112" y="468"/>
      <point x="1112" y="442" type="curve" smooth="yes"/>
      <point x="1112" y="424"/>
      <point x="1090" y="334"/>
      <point x="1070" y="260" type="curve" smooth="yes"/>
      <point x="1049" y="177"/>
      <point x="998" y="122"/>
      <point x="940" y="86" type="curve" smooth="yes"/>
      <point x="844" y="27"/>
      <point x="728" y="18"/>
      <point x="684" y="18" type="curve" smooth="yes"/>
      <point x="492" y="18"/>
      <point x="282" y="132"/>
      <point x="282" y="438" type="curve" smooth="yes"/>
      <point x="282" y="500"/>
      <point x="302" y="830"/>
      <point x="512" y="1090" type="curve" smooth="yes"/>
      <point x="620" y="1226"/>
      <point x="814" y="1348"/>
      <point x="1012" y="1348" type="curve" smooth="yes"/>
      <point x="1216" y="1348"/>
      <point x="1334" y="1194"/>
      <point x="1334" y="962" type="curve" smooth="yes"/>
      <point x="1334" y="882"/>
      <point x="1328" y="880"/>
      <point x="1328" y="860" type="curve" smooth="yes"/>
      <point x="1328" y="840"/>
      <point x="1350" y="840"/>
      <point x="1358" y="840" type="curve" smooth="yes"/>
      <point x="1384" y="840"/>
      <point x="1384" y="844"/>
      <point x="1394" y="880" type="curve" smooth="yes"/>
      <point x="1520" y="1390" type="line"/>
      <point x="1520" y="1396"/>
      <point x="1516" y="1410"/>
      <point x="1498" y="1410" type="curve" smooth="yes"/>
      <point x="1492" y="1410"/>
      <point x="1490" y="1410"/>
      <point x="1468" y="1386" type="curve" smooth="yes"/>
      <point x="1328" y="1232" type="line"/>
      <point x="1328" y="1232"/>
      <point x="1328" y="1232"/>
      <point x="1328" y="1232" type="curve"/>
      <point x="1310" y="1260"/>
      <point x="1218" y="1410"/>
      <point x="996" y="1410" type="curve" smooth="yes"/>
      <point x="550" y="1410"/>
      <point x="100" y="968"/>
    </contour>
  </outline>
</glyph>
<glyph name="H" format="2">
  <advance width="1662"/>
  <unicode hex="0048"/>
  <outline>
    <contour>
      <point x="614" y="680" type="line"/>
      <point x="1224" y="680" type="line"/>
      <point x="1161" y="432"/>
      <point x="1092" y="150"/>
      <point x="1086" y="128" type="qcurve"/>
      <point x="1071" y="80"/>
      <point x="997" y="62"/>
      <point x="904" y="62" type="qcurve"/>
      <point x="882" y="62"/>
      <point x="856" y="52"/>
      <point x="856" y="22" type="qcurve"/>
      <point x="856" y="6"/>
      <point x="881" y="0"/>
      <point x="884" y="0" type="qcurve"/>
      <point x="909" y="0"/>
      <point x="1001" y="3"/>
      <point x="1044" y="4" type="qcurve"/>
      <point x="1111" y="5"/>
      <point x="1218" y="4"/>
      <point x="1266" y="4" type="qcurve"/>
      <point x="1299" y="4"/>
      <point x="1365" y="0"/>
      <point x="1396" y="0" type="qcurve"/>
      <point x="1408" y="0"/>
      <point x="1436" y="10"/>
      <point x="1436" y="40" type="qcurve"/>
      <point x="1436" y="56"/>
      <point x="1408" y="62"/>
      <point x="1380" y="62" type="qcurve"/>
      <point x="1361" y="62"/>
      <point x="1327" y="62"/>
      <point x="1313" y="63" type="qcurve"/>
      <point x="1285" y="65"/>
      <point x="1250" y="80"/>
      <point x="1250" y="98" type="qcurve"/>
      <point x="1250" y="107"/>
      <point x="1255" y="123"/>
      <point x="1256" y="132" type="qcurve"/>
      <point x="1526" y="1212" type="line" smooth="yes"/>
      <point x="1533" y="1239"/>
      <point x="1547" y="1275"/>
      <point x="1577" y="1295"/>
      <point x="1639" y="1304"/>
      <point x="1694" y="1304" type="qcurve"/>
      <point x="1733" y="1304"/>
      <point x="1762" y="1314"/>
      <point x="1762" y="1344" type="qcurve"/>
      <point x="1762" y="1360"/>
      <point x="1738" y="1366"/>
      <point x="1734" y="1366" type="qcurve"/>
      <point x="1712" y="1366"/>
      <point x="1637" y="1364"/>
      <point x="1597" y="1363" type="qcurve"/>
      <point x="1552" y="1362"/>
      <point x="1482" y="1360"/>
      <point x="1415" y="1361"/>
      <point x="1371" y="1362" type="qcurve"/>
      <point x="1328" y="1363"/>
      <point x="1245" y="1366"/>
      <point x="1220" y="1366" type="qcurve"/>
      <point x="1208" y="1366"/>
      <point x="1182" y="1356"/>
      <point x="1182" y="1326" type="qcurve"/>
      <point x="1182" y="1310"/>
      <point x="1210" y="1304"/>
      <point x="1238" y="1304" type="qcurve"/>
      <point x="1241" y="1304"/>
      <point x="1289" y="1303"/>
      <point x="1314" y="1300" type="qcurve"/>
      <point x="1341" y="1297"/>
      <point x="1368" y="1287"/>
      <point x="1368" y="1268" type="qcurve"/>
      <point x="1368" y="1262"/>
      <point x="1364" y="1249"/>
      <point x="1360" y="1230" type="qcurve"/>
      <point x="1240" y="742" type="line"/>
      <point x="630" y="742" type="line"/>
      <point x="748" y="1212" type="line" smooth="yes"/>
      <point x="755" y="1239"/>
      <point x="769" y="1275"/>
      <point x="800" y="1295"/>
      <point x="862" y="1304"/>
      <point x="916" y="1304" type="qcurve"/>
      <point x="955" y="1304"/>
      <point x="984" y="1314"/>
      <point x="984" y="1344" type="qcurve"/>
      <point x="984" y="1360"/>
      <point x="960" y="1366"/>
      <point x="956" y="1366" type="qcurve"/>
      <point x="934" y="1366"/>
      <point x="862" y="1364"/>
      <point x="823" y="1363" type="qcurve"/>
      <point x="776" y="1362"/>
      <point x="703" y="1360"/>
      <point x="633" y="1361"/>
      <point x="588" y="1362" type="qcurve"/>
      <point x="547" y="1363"/>
      <point x="466" y="1366"/>
      <point x="442" y="1366" type="qcurve"/>
      <point x="430" y="1366"/>
      <point x="404" y="1356"/>
      <point x="404" y="1326" type="qcurve"/>
      <point x="404" y="1310"/>
      <point x="432" y="1304"/>
      <point x="460" y="1304" type="qcurve"/>
      <point x="463" y="1304"/>
      <point x="511" y="1303"/>
      <point x="536" y="1300" type="qcurve"/>
      <point x="563" y="1297"/>
      <point x="590" y="1287"/>
      <point x="590" y="1268" type="qcurve"/>
      <point x="590" y="1262"/>
      <point x="586" y="1248"/>
      <point x="582" y="1230" type="qcurve"/>
      <point x="314" y="156" type="line" smooth="yes"/>
      <point x="307" y="127"/>
      <point x="291" y="90"/>
      <point x="258" y="70"/>
      <point x="191" y="62"/>
      <point x="132" y="62" type="qcurve"/>
      <point x="105" y="62"/>
      <point x="78" y="52"/>
      <point x="78" y="22" type="qcurve"/>
      <point x="78" y="6"/>
      <point x="103" y="0"/>
      <point x="106" y="0" type="qcurve"/>
      <point x="131" y="0"/>
      <point x="222" y="3"/>
      <point x="267" y="4" type="qcurve"/>
      <point x="322" y="6"/>
      <point x="396" y="6"/>
      <point x="456" y="4"/>
      <point x="488" y="4" type="qcurve"/>
      <point x="521" y="4"/>
      <point x="587" y="0"/>
      <point x="618" y="0" type="qcurve"/>
      <point x="630" y="0"/>
      <point x="658" y="10"/>
      <point x="658" y="40" type="qcurve"/>
      <point x="658" y="56"/>
      <point x="630" y="62"/>
      <point x="602" y="62" type="qcurve"/>
      <point x="583" y="62"/>
      <point x="547" y="63"/>
      <point x="532" y="64" type="qcurve"/>
      <point x="504" y="66"/>
      <point x="472" y="81"/>
      <point x="472" y="98" type="qcurve"/>
      <point x="472" y="107"/>
      <point x="477" y="123"/>
      <point x="478" y="132" type="qcurve"/>
    </contour>
  </outline>
</glyph>
<glyph name="M" format="2">
  <advance width="1940"/>
  <unicode hex="004D"/>
  <outline>
    <contour>
      <point x="336" y="212" type="line" smooth="yes"/>
      <point x="316" y="132"/>
      <point x="282" y="68"/>
      <point x="120" y="62" type="curve"/>
      <point x="110" y="62"/>
      <point x="84" y="60"/>
      <point x="84" y="24" type="curve" smooth="yes"/>
      <point x="84" y="6"/>
      <point x="96" y="0"/>
      <point x="112" y="0" type="curve" smooth="yes"/>
      <point x="176" y="0"/>
      <point x="246" y="6"/>
      <point x="312" y="6" type="curve" smooth="yes"/>
      <point x="380" y="6"/>
      <point x="452" y="0"/>
      <point x="518" y="0" type="curve" smooth="yes"/>
      <point x="528" y="0"/>
      <point x="554" y="0"/>
      <point x="554" y="40" type="curve" smooth="yes"/>
      <point x="554" y="62"/>
      <point x="532" y="62"/>
      <point x="518" y="62" type="curve" smooth="yes"/>
      <point x="404" y="64"/>
      <point x="382" y="104"/>
      <point x="382" y="150" type="curve" smooth="yes"/>
      <point x="382" y="164"/>
      <point x="384" y="174"/>
      <point x="390" y="196" type="curve" smooth="yes"/>
      <point x="662" y="1286" type="line"/>
      <point x="664" y="1286" type="line"/>
      <point x="836" y="46" type="line" smooth="yes"/>
      <point x="840" y="22"/>
      <point x="842" y="0"/>
      <point x="866" y="0" type="curve" smooth="yes"/>
      <point x="888" y="0"/>
      <point x="900" y="22"/>
      <point x="910" y="36" type="curve" smooth="yes"/>
      <point x="1718" y="1302" type="line"/>
      <point x="1720" y="1302" type="line"/>
      <point x="1434" y="156" type="line" smooth="yes"/>
      <point x="1414" y="78"/>
      <point x="1410" y="62"/>
      <point x="1252" y="62" type="curve" smooth="yes"/>
      <point x="1218" y="62"/>
      <point x="1196" y="62"/>
      <point x="1196" y="24" type="curve" smooth="yes"/>
      <point x="1196" y="0"/>
      <point x="1220" y="0"/>
      <point x="1226" y="0" type="curve" smooth="yes"/>
      <point x="1258" y="0"/>
      <point x="1314" y="2"/>
      <point x="1368" y="4" type="curve" smooth="yes"/>
      <point x="1470" y="6"/>
      <point x="1544" y="6"/>
      <point x="1618" y="2" type="curve" smooth="yes"/>
      <point x="1654" y="0"/>
      <point x="1690" y="0"/>
      <point x="1724" y="0" type="curve" smooth="yes"/>
      <point x="1736" y="0"/>
      <point x="1762" y="0"/>
      <point x="1762" y="40" type="curve" smooth="yes"/>
      <point x="1762" y="62"/>
      <point x="1744" y="62"/>
      <point x="1706" y="62" type="curve" smooth="yes"/>
      <point x="1678" y="62"/>
      <point x="1654" y="62"/>
      <point x="1634" y="64" type="curve" smooth="yes"/>
      <point x="1598" y="66"/>
      <point x="1576" y="76"/>
      <point x="1576" y="98" type="curve" smooth="yes"/>
      <point x="1576" y="106"/>
      <point x="1576" y="110"/>
      <point x="1586" y="146" type="curve" smooth="yes"/>
      <point x="1852" y="1212" type="line" smooth="yes"/>
      <point x="1870" y="1284"/>
      <point x="1874" y="1304"/>
      <point x="2024" y="1304" type="curve" smooth="yes"/>
      <point x="2070" y="1304"/>
      <point x="2088" y="1304"/>
      <point x="2088" y="1344" type="curve" smooth="yes"/>
      <point x="2088" y="1366"/>
      <point x="2068" y="1366"/>
      <point x="2034" y="1366" type="curve" smooth="yes"/>
      <point x="1770" y="1366" type="line" smooth="yes"/>
      <point x="1718" y="1366"/>
      <point x="1716" y="1366"/>
      <point x="1692" y="1328" type="curve" smooth="yes"/>
      <point x="962" y="188" type="line"/>
      <point x="806" y="1320" type="line" smooth="yes"/>
      <point x="800" y="1366"/>
      <point x="796" y="1366"/>
      <point x="744" y="1366" type="curve" smooth="yes"/>
      <point x="470" y="1366" type="line" smooth="yes"/>
      <point x="432" y="1366"/>
      <point x="410" y="1366"/>
      <point x="410" y="1328" type="curve" smooth="yes"/>
      <point x="410" y="1304"/>
      <point x="428" y="1304"/>
      <point x="468" y="1304" type="curve" smooth="yes"/>
      <point x="494" y="1304"/>
      <point x="530" y="1302"/>
      <point x="554" y="1300" type="curve" smooth="yes"/>
      <point x="586" y="1296"/>
      <point x="598" y="1290"/>
      <point x="598" y="1268" type="curve" smooth="yes"/>
      <point x="598" y="1260"/>
      <point x="596" y="1254"/>
      <point x="590" y="1230" type="curve" smooth="yes"/>
    </contour>
  </outline>
</glyph>
<glyph name="U" format="2">
  <advance width="1364"/>
  <unicode hex="0055"/>
  <outline>
    <contour>
      <point x="526" y="-44" type="curve" smooth="yes"/>
      <point x="778" y="-44"/>
      <point x="1026" y="182"/>
      <point x="1092" y="446" type="curve" smooth="yes"/>
      <point x="1151" y="682"/>
      <point x="1211" y="919"/>
      <point x="1270" y="1156" type="curve" smooth="yes"/>
      <point x="1290" y="1238"/>
      <point x="1326" y="1298"/>
      <point x="1486" y="1304" type="curve" smooth="yes"/>
      <point x="1496" y="1304"/>
      <point x="1520" y="1306"/>
      <point x="1520" y="1344" type="curve" smooth="yes"/>
      <point x="1520" y="1346"/>
      <point x="1520" y="1366"/>
      <point x="1494" y="1366" type="curve" smooth="yes"/>
      <point x="1458" y="1366"/>
      <point x="1420" y="1364"/>
      <point x="1383" y="1363" type="curve" smooth="yes"/>
      <point x="1324" y="1360"/>
      <point x="1265" y="1360"/>
      <point x="1206" y="1362" type="curve" smooth="yes"/>
      <point x="1164" y="1364"/>
      <point x="1121" y="1366"/>
      <point x="1082" y="1366" type="curve" smooth="yes"/>
      <point x="1070" y="1366"/>
      <point x="1046" y="1366"/>
      <point x="1046" y="1326" type="curve" smooth="yes"/>
      <point x="1046" y="1304"/>
      <point x="1066" y="1304"/>
      <point x="1082" y="1304" type="curve" smooth="yes"/>
      <point x="1196" y="1302"/>
      <point x="1218" y="1260"/>
      <point x="1218" y="1216" type="curve" smooth="yes"/>
      <point x="1218" y="1210"/>
      <point x="1214" y="1180"/>
      <point x="1212" y="1174" type="curve"/>
      <point x="1152" y="936"/>
      <point x="1092" y="698"/>
      <point x="1032" y="460" type="curve" smooth="yes"/>
      <point x="964" y="192"/>
      <point x="734" y="18"/>
      <point x="534" y="18" type="curve" smooth="yes"/>
      <point x="398" y="18"/>
      <point x="290" y="106"/>
      <point x="290" y="278" type="curve" smooth="yes"/>
      <point x="290" y="282"/>
      <point x="290" y="346"/>
      <point x="312" y="434" type="curve" smooth="yes"/>
      <point x="506" y="1212" type="line" smooth="yes"/>
      <point x="524" y="1284"/>
      <point x="528" y="1304"/>
      <point x="674" y="1304" type="curve" smooth="yes"/>
      <point x="726" y="1304"/>
      <point x="742" y="1304"/>
      <point x="742" y="1344" type="curve" smooth="yes"/>
      <point x="742" y="1366"/>
      <point x="720" y="1366"/>
      <point x="714" y="1366" type="curve" smooth="yes"/>
      <point x="686" y="1366"/>
      <point x="636" y="1365"/>
      <point x="586" y="1363" type="curve" smooth="yes"/>
      <point x="490" y="1360"/>
      <point x="438" y="1360"/>
      <point x="346" y="1362" type="curve" smooth="yes"/>
      <point x="291" y="1364"/>
      <point x="232" y="1366"/>
      <point x="200" y="1366" type="curve" smooth="yes"/>
      <point x="184" y="1366"/>
      <point x="162" y="1366"/>
      <point x="162" y="1326" type="curve" smooth="yes"/>
      <point x="162" y="1304"/>
      <point x="180" y="1304"/>
      <point x="218" y="1304" type="curve" smooth="yes"/>
      <point x="222" y="1304"/>
      <point x="260" y="1304"/>
      <point x="294" y="1300" type="curve" smooth="yes"/>
      <point x="330" y="1296"/>
      <point x="348" y="1294"/>
      <point x="348" y="1268" type="curve" smooth="yes"/>
      <point x="348" y="1256"/>
      <point x="326" y="1172"/>
      <point x="314" y="1126" type="curve" smooth="yes"/>
      <point x="250" y="872"/>
      <point x="156" y="494"/>
      <point x="148" y="456" type="curve" smooth="yes"/>
      <point x="134" y="400"/>
      <point x="134" y="370"/>
      <point x="134" y="340" type="curve" smooth="yes"/>
      <point x="134" y="96"/>
      <point x="316" y="-44"/>
    </contour>
  </outline>
</glyph>
<glyph name="W" format="2">
  <advance width="1888"/>
  <unicode hex="0057"/>
  <outline>
    <contour>
      <point x="1024" y="1018" type="line"/>
      <point x="1098" y="8" type="line" smooth="yes"/>
      <point x="1102" y="-34"/>
      <point x="1106" y="-44"/>
      <point x="1130" y="-44" type="curve" smooth="yes"/>
      <point x="1156" y="-44"/>
      <point x="1168" y="-24"/>
      <point x="1178" y="-6" type="curve" smooth="yes"/>
      <point x="1834" y="1134" type="line" smooth="yes"/>
      <point x="1884" y="1222"/>
      <point x="1932" y="1294"/>
      <point x="2058" y="1304" type="curve" smooth="yes"/>
      <point x="2076" y="1306"/>
      <point x="2096" y="1306"/>
      <point x="2096" y="1344" type="curve" smooth="yes"/>
      <point x="2096" y="1352"/>
      <point x="2088" y="1366"/>
      <point x="2072" y="1366" type="curve" smooth="yes"/>
      <point x="2024" y="1366"/>
      <point x="1968" y="1360"/>
      <point x="1918" y="1360" type="curve" smooth="yes"/>
      <point x="1850" y="1360"/>
      <point x="1776" y="1366"/>
      <point x="1710" y="1366" type="curve" smooth="yes"/>
      <point x="1698" y="1366"/>
      <point x="1672" y="1366"/>
      <point x="1672" y="1328" type="curve" smooth="yes"/>
      <point x="1672" y="1306"/>
      <point x="1690" y="1304"/>
      <point x="1702" y="1304" type="curve" smooth="yes"/>
      <point x="1750" y="1302"/>
      <point x="1820" y="1286"/>
      <point x="1820" y="1226" type="curve" smooth="yes"/>
      <point x="1820" y="1204"/>
      <point x="1810" y="1188"/>
      <point x="1794" y="1160" type="curve" smooth="yes"/>
      <point x="1254" y="218" type="line"/>
      <point x="1180" y="1210" type="line" smooth="yes"/>
      <point x="1178" y="1250"/>
      <point x="1174" y="1302"/>
      <point x="1320" y="1304" type="curve" smooth="yes"/>
      <point x="1354" y="1304"/>
      <point x="1374" y="1304"/>
      <point x="1374" y="1344" type="curve" smooth="yes"/>
      <point x="1374" y="1364"/>
      <point x="1352" y="1366"/>
      <point x="1344" y="1366" type="curve" smooth="yes"/>
      <point x="1302" y="1366"/>
      <point x="1259" y="1364"/>
      <point x="1216" y="1363" type="curve" smooth="yes"/>
      <point x="1158" y="1360"/>
      <point x="1117" y="1359"/>
      <point x="1017" y="1362" type="curve" smooth="yes"/>
      <point x="969" y="1364"/>
      <point x="917" y="1366"/>
      <point x="890" y="1366" type="curve" smooth="yes"/>
      <point x="878" y="1366"/>
      <point x="852" y="1366"/>
      <point x="852" y="1326" type="curve" smooth="yes"/>
      <point x="852" y="1304"/>
      <point x="872" y="1304"/>
      <point x="900" y="1304" type="curve" smooth="yes"/>
      <point x="988" y="1304"/>
      <point x="1004" y="1292"/>
      <point x="1006" y="1254" type="curve" smooth="yes"/>
      <point x="1010" y="1203"/>
      <point x="1014" y="1151"/>
      <point x="1018" y="1100" type="curve"/>
      <point x="1018" y="1100"/>
      <point x="1018" y="1100"/>
      <point x="1018" y="1100" type="curve"/>
      <point x="512" y="218" type="line"/>
      <point x="436" y="1232" type="line" smooth="yes"/>
      <point x="434" y="1256"/>
      <point x="436" y="1302"/>
      <point x="588" y="1304" type="curve" smooth="yes"/>
      <point x="608" y="1304"/>
      <point x="630" y="1304"/>
      <point x="630" y="1344" type="curve" smooth="yes"/>
      <point x="630" y="1366"/>
      <point x="606" y="1366"/>
      <point x="602" y="1366" type="curve" smooth="yes"/>
      <point x="554" y="1366"/>
      <point x="506" y="1364"/>
      <point x="456" y="1362" type="curve" smooth="yes"/>
      <point x="392" y="1360"/>
      <point x="332" y="1360"/>
      <point x="264" y="1362" type="curve" smooth="yes"/>
      <point x="224" y="1364"/>
      <point x="184" y="1366"/>
      <point x="146" y="1366" type="curve" smooth="yes"/>
      <point x="136" y="1366"/>
      <point x="110" y="1366"/>
      <point x="110" y="1328" type="curve" smooth="yes"/>
      <point x="110" y="1304"/>
      <point x="128" y="1304"/>
      <point x="160" y="1304" type="curve" smooth="yes"/>
      <point x="260" y="1304"/>
      <point x="262" y="1286"/>
      <point x="266" y="1230" type="curve" smooth="yes"/>
      <point x="356" y="8" type="line" smooth="yes"/>
      <point x="358" y="-28"/>
      <point x="360" y="-44"/>
      <point x="388" y="-44" type="curve" smooth="yes"/>
      <point x="412" y="-44"/>
      <point x="418" y="-32"/>
      <point x="436" y="-2" type="curve" smooth="yes"/>
    </contour>
  </outline>
</glyph>
<glyph name="Y" format="2">
  <advance width="1160"/>
  <unicode hex="0059"/>
  <outline>
    <contour>
      <point x="680" y="628" type="line"/>
      <point x="460" y="1222" type="line" smooth="yes"/>
      <point x="450" y="1246"/>
      <point x="448" y="1258"/>
      <point x="448" y="1260" type="curve" smooth="yes"/>
      <point x="448" y="1308"/>
      <point x="546" y="1304"/>
      <point x="566" y="1304" type="curve" smooth="yes"/>
      <point x="594" y="1304"/>
      <point x="614" y="1304"/>
      <point x="614" y="1344" type="curve" smooth="yes"/>
      <point x="614" y="1366"/>
      <point x="590" y="1366"/>
      <point x="584" y="1366" type="curve" smooth="yes"/>
      <point x="551" y="1366"/>
      <point x="488" y="1364"/>
      <point x="430" y="1362" type="curve" smooth="yes"/>
      <point x="352" y="1360"/>
      <point x="314" y="1360"/>
      <point x="234" y="1363" type="curve" smooth="yes"/>
      <point x="186" y="1364"/>
      <point x="136" y="1366"/>
      <point x="108" y="1366" type="curve" smooth="yes"/>
      <point x="96" y="1366"/>
      <point x="70" y="1366"/>
      <point x="70" y="1326" type="curve" smooth="yes"/>
      <point x="70" y="1304"/>
      <point x="90" y="1304"/>
      <point x="116" y="1304" type="curve" smooth="yes"/>
      <point x="236" y="1304"/>
      <point x="244" y="1286"/>
      <point x="262" y="1236" type="curve" smooth="yes"/>
      <point x="508" y="578" type="line" smooth="yes"/>
      <point x="510" y="572"/>
      <point x="516" y="550"/>
      <point x="516" y="544" type="curve" smooth="yes"/>
      <point x="516" y="538"/>
      <point x="436" y="216"/>
      <point x="426" y="180" type="curve" smooth="yes"/>
      <point x="400" y="70"/>
      <point x="398" y="64"/>
      <point x="238" y="62" type="curve" smooth="yes"/>
      <point x="200" y="62"/>
      <point x="184" y="62"/>
      <point x="184" y="22" type="curve" smooth="yes"/>
      <point x="184" y="0"/>
      <point x="208" y="0"/>
      <point x="212" y="0" type="curve" smooth="yes"/>
      <point x="246" y="0"/>
      <point x="310" y="2"/>
      <point x="368" y="4" type="curve" smooth="yes"/>
      <point x="456" y="6"/>
      <point x="505" y="6"/>
      <point x="597" y="3" type="curve" smooth="yes"/>
      <point x="645" y="1"/>
      <point x="693" y="0"/>
      <point x="720" y="0" type="curve" smooth="yes"/>
      <point x="734" y="0"/>
      <point x="758" y="0"/>
      <point x="758" y="40" type="curve" smooth="yes"/>
      <point x="758" y="62"/>
      <point x="740" y="62"/>
      <point x="702" y="62" type="curve" smooth="yes"/>
      <point x="698" y="62"/>
      <point x="660" y="62"/>
      <point x="626" y="66" type="curve" smooth="yes"/>
      <point x="584" y="70"/>
      <point x="572" y="74"/>
      <point x="572" y="98" type="curve" smooth="yes"/>
      <point x="572" y="112"/>
      <point x="590" y="182"/>
      <point x="600" y="224" type="curve" smooth="yes"/>
      <point x="623" y="318"/>
      <point x="647" y="412"/>
      <point x="670" y="506" type="curve" smooth="yes"/>
      <point x="680" y="544"/>
      <point x="682" y="550"/>
      <point x="698" y="568" type="curve" smooth="yes"/>
      <point x="1194" y="1138" type="line" smooth="yes"/>
      <point x="1204" y="1148"/>
      <point x="1214" y="1158"/>
      <point x="1224" y="1168" type="curve" smooth="yes"/>
      <point x="1284" y="1228"/>
      <point x="1348" y="1294"/>
      <point x="1484" y="1304" type="curve" smooth="yes"/>
      <point x="1506" y="1306"/>
      <point x="1524" y="1306"/>
      <point x="1524" y="1342" type="curve" smooth="yes"/>
      <point x="1524" y="1358"/>
      <point x="1514" y="1366"/>
      <point x="1498" y="1366" type="curve" smooth="yes"/>
      <point x="1446" y="1366"/>
      <point x="1388" y="1360"/>
      <point x="1334" y="1360" type="curve" smooth="yes"/>
      <point x="1268" y="1360"/>
      <point x="1198" y="1366"/>
      <point x="1134" y="1366" type="curve" smooth="yes"/>
      <point x="1122" y="1366"/>
      <point x="1096" y="1366"/>
      <point x="1096" y="1328" type="curve" smooth="yes"/>
      <point x="1096" y="1306"/>
      <point x="1116" y="1304"/>
      <point x="1126" y="1304" type="curve" smooth="yes"/>
      <point x="1140" y="1304"/>
      <point x="1198" y="1300"/>
      <point x="1198" y="1258" type="curve" smooth="yes"/>
      <point x="1198" y="1224"/>
      <point x="1152" y="1172"/>
      <point x="1144" y="1162" type="curve" smooth="yes"/>
    </contour>
  </outline>
</glyph>
<glyph name="Z" format="2">
  <advance width="1364"/>
  <unicode hex="005A"/>
  <outline>
    <contour>
      <point x="1242" y="1304" type="line"/>
      <point x="124" y="54" type="line"/>
      <point x="124" y="52"/>
      <point x="116" y="24"/>
      <point x="116" y="18" type="curve" smooth="yes"/>
      <point x="116" y="0"/>
      <point x="130" y="0"/>
      <point x="166" y="0" type="curve" smooth="yes"/>
      <point x="1036" y="0" type="line" smooth="yes"/>
      <point x="1084" y="0"/>
      <point x="1086" y="2"/>
      <point x="1098" y="40" type="curve" smooth="yes"/>
      <point x="1240" y="482" type="line"/>
      <point x="1242" y="490"/>
      <point x="1248" y="504"/>
      <point x="1248" y="512" type="curve" smooth="yes"/>
      <point x="1248" y="522"/>
      <point x="1240" y="534"/>
      <point x="1222" y="534" type="curve" smooth="yes"/>
      <point x="1204" y="534"/>
      <point x="1202" y="526"/>
      <point x="1188" y="484" type="curve" smooth="yes"/>
      <point x="1100" y="212"/>
      <point x="1004" y="68"/>
      <point x="664" y="68" type="curve" smooth="yes"/>
      <point x="322" y="68" type="line"/>
      <point x="1440" y="1318" type="line"/>
      <point x="1442" y="1326"/>
      <point x="1446" y="1336"/>
      <point x="1446" y="1348" type="curve" smooth="yes"/>
      <point x="1446" y="1366"/>
      <point x="1436" y="1366"/>
      <point x="1396" y="1366" type="curve" smooth="yes"/>
      <point x="552" y="1366" type="line" smooth="yes"/>
      <point x="504" y="1366"/>
      <point x="502" y="1364"/>
      <point x="490" y="1326" type="curve" smooth="yes"/>
      <point x="380" y="966" type="line"/>
      <point x="376" y="956"/>
      <point x="374" y="942"/>
      <point x="374" y="938" type="curve" smooth="yes"/>
      <point x="374" y="936"/>
      <point x="374" y="916"/>
      <point x="398" y="916" type="curve" smooth="yes"/>
      <point x="416" y="916"/>
      <point x="420" y="930"/>
      <point x="424" y="936" type="curve"/>
      <point x="500" y="1172"/>
      <point x="604" y="1304"/>
      <point x="916" y="1304" type="curve" smooth="yes"/>
    </contour>
  </outline>
</glyph>
<glyph name="a" format="2">
  <advance width="1056"/>
  <unicode hex="0061"/>
  <outline>
    <contour>
      <point x="80" y="298" type="curve" smooth="yes"/>
      <point x="80" y="110"/>
      <point x="190" y="-22"/>
      <point x="346" y="-22" type="curve" smooth="yes"/>
      <point x="386" y="-22"/>
      <point x="486" y="-14"/>
      <point x="606" y="128" type="curve"/>
      <point x="622" y="44"/>
      <point x="692" y="-22"/>
      <point x="788" y="-22" type="curve" smooth="yes"/>
      <point x="858" y="-22"/>
      <point x="904" y="24"/>
      <point x="936" y="88" type="curve" smooth="yes"/>
      <point x="970" y="160"/>
      <point x="996" y="282"/>
      <point x="996" y="286" type="curve" smooth="yes"/>
      <point x="996" y="306"/>
      <point x="978" y="306"/>
      <point x="972" y="306" type="curve" smooth="yes"/>
      <point x="952" y="306"/>
      <point x="950" y="298"/>
      <point x="944" y="270" type="curve" smooth="yes"/>
      <point x="910" y="140"/>
      <point x="874" y="22"/>
      <point x="792" y="22" type="curve" smooth="yes"/>
      <point x="738" y="22"/>
      <point x="732" y="74"/>
      <point x="732" y="114" type="curve" smooth="yes"/>
      <point x="732" y="148"/>
      <point x="736" y="174"/>
      <point x="758" y="262" type="curve" smooth="yes"/>
      <point x="780" y="346"/>
      <point x="836" y="570"/>
      <point x="874" y="722" type="curve" smooth="yes"/>
      <point x="888" y="778"/>
      <point x="888" y="782"/>
      <point x="888" y="790" type="curve" smooth="yes"/>
      <point x="888" y="824"/>
      <point x="864" y="844"/>
      <point x="830" y="844" type="curve" smooth="yes"/>
      <point x="782" y="844"/>
      <point x="752" y="800"/>
      <point x="746" y="756" type="curve"/>
      <point x="710" y="830"/>
      <point x="652" y="884"/>
      <point x="562" y="884" type="curve" smooth="yes"/>
      <point x="328" y="884"/>
      <point x="80" y="590"/>
    </contour>
    <contour>
      <point x="222" y="210" type="curve" smooth="yes"/>
      <point x="222" y="310"/>
      <point x="286" y="556"/>
      <point x="332" y="648" type="curve" smooth="yes"/>
      <point x="394" y="766"/>
      <point x="484" y="840"/>
      <point x="564" y="840" type="curve" smooth="yes"/>
      <point x="694" y="840"/>
      <point x="722" y="676"/>
      <point x="722" y="664" type="curve" smooth="yes"/>
      <point x="722" y="652"/>
      <point x="718" y="640"/>
      <point x="716" y="630" type="curve"/>
      <point x="683" y="499"/>
      <point x="649" y="369"/>
      <point x="616" y="238" type="curve" smooth="yes"/>
      <point x="606" y="202"/>
      <point x="606" y="198"/>
      <point x="576" y="164" type="curve" smooth="yes"/>
      <point x="488" y="54"/>
      <point x="406" y="22"/>
      <point x="350" y="22" type="curve" smooth="yes"/>
      <point x="250" y="22"/>
      <point x="222" y="132"/>
    </contour>
  </outline>
</glyph>
<glyph name="h" format="2">
  <advance width="1152"/>
  <unicode hex="0068"/>
  <outline>
    <contour>
      <point x="714" y="884" type="curve" smooth="yes"/>
      <point x="588" y="884"/>
      <point x="492" y="822"/>
      <point x="418" y="730" type="curve"/>
      <point x="574" y="1366" type="line"/>
      <point x="574" y="1366"/>
      <point x="574" y="1366"/>
      <point x="574" y="1366" type="curve"/>
      <point x="574" y="1368"/>
      <point x="574" y="1388"/>
      <point x="548" y="1388" type="curve" smooth="yes"/>
      <point x="502" y="1388"/>
      <point x="356" y="1372"/>
      <point x="304" y="1368" type="curve" smooth="yes"/>
      <point x="288" y="1366"/>
      <point x="266" y="1364"/>
      <point x="266" y="1328" type="curve" smooth="yes"/>
      <point x="266" y="1304"/>
      <point x="284" y="1304"/>
      <point x="314" y="1304" type="curve" smooth="yes"/>
      <point x="410" y="1304"/>
      <point x="414" y="1290"/>
      <point x="414" y="1270" type="curve"/>
      <point x="412" y="1257"/>
      <point x="410" y="1243"/>
      <point x="408" y="1230" type="curve"/>
      <point x="118" y="78" type="line" smooth="yes"/>
      <point x="110" y="50"/>
      <point x="110" y="46"/>
      <point x="110" y="34" type="curve" smooth="yes"/>
      <point x="110" y="-12"/>
      <point x="150" y="-22"/>
      <point x="168" y="-22" type="curve" smooth="yes"/>
      <point x="200" y="-22"/>
      <point x="232" y="2"/>
      <point x="242" y="30" type="curve"/>
      <point x="255" y="81"/>
      <point x="267" y="131"/>
      <point x="280" y="182" type="curve" smooth="yes"/>
      <point x="336" y="406"/>
      <point x="348" y="450"/>
      <point x="358" y="496" type="curve"/>
      <point x="362" y="508"/>
      <point x="378" y="574"/>
      <point x="380" y="586" type="curve"/>
      <point x="398" y="620"/>
      <point x="496" y="840"/>
      <point x="708" y="840" type="curve" smooth="yes"/>
      <point x="794" y="840"/>
      <point x="816" y="772"/>
      <point x="816" y="700" type="curve" smooth="yes"/>
      <point x="816" y="592"/>
      <point x="740" y="374"/>
      <point x="692" y="252" type="curve" smooth="yes"/>
      <point x="676" y="206"/>
      <point x="666" y="182"/>
      <point x="666" y="142" type="curve" smooth="yes"/>
      <point x="666" y="48"/>
      <point x="736" y="-22"/>
      <point x="830" y="-22" type="curve" smooth="yes"/>
      <point x="1018" y="-22"/>
      <point x="1092" y="270"/>
      <point x="1092" y="286" type="curve" smooth="yes"/>
      <point x="1092" y="306"/>
      <point x="1074" y="306"/>
      <point x="1068" y="306" type="curve" smooth="yes"/>
      <point x="1048" y="306"/>
      <point x="1048" y="300"/>
      <point x="1038" y="270" type="curve" smooth="yes"/>
      <point x="1008" y="164"/>
      <point x="944" y="22"/>
      <point x="834" y="22" type="curve" smooth="yes"/>
      <point x="800" y="22"/>
      <point x="786" y="42"/>
      <point x="786" y="88" type="curve" smooth="yes"/>
      <point x="786" y="138"/>
      <point x="804" y="186"/>
      <point x="822" y="230" type="curve" smooth="yes"/>
      <point x="854" y="316"/>
      <point x="944" y="554"/>
      <point x="944" y="670" type="curve" smooth="yes"/>
      <point x="944" y="800"/>
      <point x="864" y="884"/>
    </contour>
  </outline>
</glyph>
<glyph name="n" format="2">
  <advance width="1200"/>
  <unicode hex="006E"/>
  <outline>
    <contour>
      <point x="216" y="-22" type="qcurve"/>
      <point x="234" y="-22"/>
      <point x="280" y="4"/>
      <point x="290" y="34" type="qcurve"/>
      <point x="291" y="36"/>
      <point x="299" y="67"/>
      <point x="311" y="114"/>
      <point x="324" y="163"/>
      <point x="328" y="182" type="qcurve"/>
      <point x="358" y="301"/>
      <point x="396" y="452"/>
      <point x="417" y="537"/>
      <point x="427" y="577"/>
      <point x="431" y="591"/>
      <point x="432" y="596" type="qcurve"/>
      <point x="442" y="616"/>
      <point x="480" y="680"/>
      <point x="540" y="750"/>
      <point x="580" y="779" type="qcurve"/>
      <point x="616" y="806"/>
      <point x="705" y="840"/>
      <point x="758" y="840" type="qcurve"/>
      <point x="803" y="840"/>
      <point x="850" y="798"/>
      <point x="866" y="733"/>
      <point x="866" y="700" type="qcurve"/>
      <point x="866" y="663"/>
      <point x="846" y="562"/>
      <point x="813" y="452"/>
      <point x="778" y="346"/>
      <point x="746" y="260"/>
      <point x="736" y="234" type="qcurve"/>
      <point x="723" y="200"/>
      <point x="716" y="158"/>
      <point x="716" y="142" type="qcurve"/>
      <point x="716" y="72"/>
      <point x="810" y="-22"/>
      <point x="880" y="-22" type="qcurve"/>
      <point x="927" y="-22"/>
      <point x="1002" y="20"/>
      <point x="1061" y="88"/>
      <point x="1102" y="164"/>
      <point x="1129" y="234"/>
      <point x="1142" y="282"/>
      <point x="1142" y="286" type="qcurve"/>
      <point x="1142" y="301"/>
      <point x="1122" y="306"/>
      <point x="1118" y="306" type="qcurve"/>
      <point x="1103" y="306"/>
      <point x="1095" y="292"/>
      <point x="1088" y="270" type="qcurve"/>
      <point x="1068" y="202"/>
      <point x="1010" y="89"/>
      <point x="933" y="22"/>
      <point x="884" y="22" type="qcurve"/>
      <point x="859" y="22"/>
      <point x="836" y="54"/>
      <point x="836" y="88" type="qcurve"/>
      <point x="836" y="125"/>
      <point x="859" y="197"/>
      <point x="872" y="230" type="qcurve"/>
      <point x="886" y="270"/>
      <point x="927" y="384"/>
      <point x="967" y="510"/>
      <point x="994" y="627"/>
      <point x="994" y="670" type="qcurve"/>
      <point x="994" y="770"/>
      <point x="871" y="884"/>
      <point x="764" y="884" type="qcurve"/>
      <point x="697" y="884"/>
      <point x="592" y="844"/>
      <point x="515" y="785"/>
      <point x="465" y="727"/>
      <point x="452" y="710" type="qcurve"/>
      <point x="447" y="766"/>
      <point x="394" y="844"/>
      <point x="314" y="884"/>
      <point x="268" y="884" type="qcurve"/>
      <point x="222" y="884"/>
      <point x="161" y="842"/>
      <point x="126" y="788"/>
      <point x="118" y="770" type="qcurve"/>
      <point x="107" y="745"/>
      <point x="85" y="681"/>
      <point x="68" y="620"/>
      <point x="58" y="579"/>
      <point x="58" y="576" type="qcurve"/>
      <point x="58" y="561"/>
      <point x="79" y="556"/>
      <point x="82" y="556" type="qcurve"/>
      <point x="97" y="556"/>
      <point x="107" y="569"/>
      <point x="116" y="602" type="qcurve"/>
      <point x="141" y="708"/>
      <point x="208" y="840"/>
      <point x="262" y="840" type="qcurve"/>
      <point x="292" y="840"/>
      <point x="324" y="797"/>
      <point x="324" y="748" type="qcurve"/>
      <point x="324" y="727"/>
      <point x="319" y="690"/>
      <point x="305" y="632"/>
      <point x="292" y="580" type="qcurve"/>
      <point x="263" y="465"/>
      <point x="205" y="233"/>
      <point x="176" y="118" type="qcurve"/>
      <point x="172" y="96"/>
      <point x="158" y="39"/>
      <point x="158" y="32" type="qcurve"/>
      <point x="158" y="5"/>
      <point x="194" y="-22"/>
    </contour>
  </outline>
</glyph>
<glyph name="r" format="2">
  <advance width="902"/>
  <unicode hex="0072"/>
  <outline>
    <contour>
      <point x="216" y="-22" type="curve" smooth="yes"/>
      <point x="240" y="-22"/>
      <point x="276" y="-6"/>
      <point x="290" y="34" type="curve"/>
      <point x="294" y="42"/>
      <point x="362" y="314"/>
      <point x="370" y="350" type="curve" smooth="yes"/>
      <point x="386" y="416"/>
      <point x="422" y="556"/>
      <point x="434" y="610" type="curve"/>
      <point x="442" y="636"/>
      <point x="498" y="730"/>
      <point x="546" y="774" type="curve" smooth="yes"/>
      <point x="562" y="788"/>
      <point x="620" y="840"/>
      <point x="706" y="840" type="curve" smooth="yes"/>
      <point x="758" y="840"/>
      <point x="788" y="816"/>
      <point x="790" y="816" type="curve"/>
      <point x="730" y="806"/>
      <point x="686" y="758"/>
      <point x="686" y="706" type="curve" smooth="yes"/>
      <point x="686" y="674"/>
      <point x="708" y="636"/>
      <point x="762" y="636" type="curve" smooth="yes"/>
      <point x="816" y="636"/>
      <point x="872" y="682"/>
      <point x="872" y="754" type="curve" smooth="yes"/>
      <point x="872" y="824"/>
      <point x="808" y="884"/>
      <point x="706" y="884" type="curve" smooth="yes"/>
      <point x="576" y="884"/>
      <point x="488" y="786"/>
      <point x="450" y="730" type="curve"/>
      <point x="434" y="820"/>
      <point x="362" y="884"/>
      <point x="268" y="884" type="curve" smooth="yes"/>
      <point x="176" y="884"/>
      <point x="138" y="806"/>
      <point x="120" y="770" type="curve" smooth="yes"/>
      <point x="84" y="702"/>
      <point x="58" y="582"/>
      <point x="58" y="576" type="curve" smooth="yes"/>
      <point x="58" y="556"/>
      <point x="78" y="556"/>
      <point x="82" y="556" type="curve" smooth="yes"/>
      <point x="102" y="556"/>
      <point x="104" y="558"/>
      <point x="116" y="602" type="curve" smooth="yes"/>
      <point x="150" y="744"/>
      <point x="190" y="840"/>
      <point x="262" y="840" type="curve" smooth="yes"/>
      <point x="296" y="840"/>
      <point x="324" y="824"/>
      <point x="324" y="748" type="curve" smooth="yes"/>
      <point x="324" y="706"/>
      <point x="318" y="684"/>
      <point x="292" y="580" type="curve" smooth="yes"/>
      <point x="253" y="426"/>
      <point x="215" y="272"/>
      <point x="176" y="118" type="curve" smooth="yes"/>
      <point x="170" y="88"/>
      <point x="158" y="42"/>
      <point x="158" y="32" type="curve" smooth="yes"/>
      <point x="158" y="-4"/>
      <point x="186" y="-22"/>
    </contour>
  </outline>
</glyph>
<glyph name="s" format="2">
  <advance width="936"/>
  <unicode hex="0073"/>
  <outline>
    <contour>
      <point x="390" y="-22" type="curve" smooth="yes"/>
      <point x="714" y="-22"/>
      <point x="792" y="220"/>
      <point x="792" y="310" type="curve" smooth="yes"/>
      <point x="792" y="382"/>
      <point x="754" y="432"/>
      <point x="730" y="456" type="curve" smooth="yes"/>
      <point x="676" y="512"/>
      <point x="618" y="522"/>
      <point x="530" y="540" type="curve" smooth="yes"/>
      <point x="484" y="550"/>
      <point x="434" y="560"/>
      <point x="404" y="589" type="curve" smooth="yes"/>
      <point x="388" y="606"/>
      <point x="378" y="628"/>
      <point x="378" y="660" type="curve" smooth="yes"/>
      <point x="378" y="691"/>
      <point x="391" y="739"/>
      <point x="430" y="778" type="curve" smooth="yes"/>
      <point x="464" y="813"/>
      <point x="519" y="840"/>
      <point x="602" y="840" type="curve" smooth="yes"/>
      <point x="652" y="840"/>
      <point x="752" y="826"/>
      <point x="782" y="748" type="curve"/>
      <point x="726" y="746"/>
      <point x="686" y="702"/>
      <point x="686" y="658" type="curve" smooth="yes"/>
      <point x="686" y="630"/>
      <point x="704" y="600"/>
      <point x="748" y="600" type="curve" smooth="yes"/>
      <point x="792" y="600"/>
      <point x="840" y="634"/>
      <point x="840" y="712" type="curve" smooth="yes"/>
      <point x="840" y="802"/>
      <point x="754" y="884"/>
      <point x="602" y="884" type="curve" smooth="yes"/>
      <point x="338" y="884"/>
      <point x="264" y="680"/>
      <point x="264" y="592" type="curve" smooth="yes"/>
      <point x="264" y="534"/>
      <point x="284" y="494"/>
      <point x="312" y="465" type="curve" smooth="yes"/>
      <point x="361" y="416"/>
      <point x="433" y="402"/>
      <point x="470" y="394" type="curve" smooth="yes"/>
      <point x="538" y="381"/>
      <point x="606" y="367"/>
      <point x="645" y="328" type="curve" smooth="yes"/>
      <point x="666" y="308"/>
      <point x="678" y="280"/>
      <point x="678" y="242" type="curve" smooth="yes"/>
      <point x="678" y="210"/>
      <point x="660" y="132"/>
      <point x="589" y="79" type="curve" smooth="yes"/>
      <point x="546" y="46"/>
      <point x="483" y="22"/>
      <point x="392" y="22" type="curve" smooth="yes"/>
      <point x="364" y="22"/>
      <point x="210" y="22"/>
      <point x="164" y="128" type="curve"/>
      <point x="240" y="118"/>
      <point x="290" y="178"/>
      <point x="290" y="234" type="curve" smooth="yes"/>
      <point x="290" y="280"/>
      <point x="258" y="304"/>
      <point x="216" y="304" type="curve" smooth="yes"/>
      <point x="164" y="304"/>
      <point x="104" y="262"/>
      <point x="104" y="172" type="curve" smooth="yes"/>
      <point x="104" y="58"/>
      <point x="218" y="-22"/>
    </contour>
  </outline>
</glyph>
<glyph name="t" format="2">
  <advance width="722"/>
  <unicode hex="0074"/>
  <outline>
    <contour>
      <point x="412" y="800" type="line"/>
      <point x="600" y="800" type="line" smooth="yes"/>
      <point x="640" y="800"/>
      <point x="660" y="800"/>
      <point x="660" y="840" type="curve" smooth="yes"/>
      <point x="660" y="862"/>
      <point x="640" y="862"/>
      <point x="604" y="862" type="curve" smooth="yes"/>
      <point x="428" y="862" type="line"/>
      <point x="453" y="959"/>
      <point x="470" y="1028"/>
      <point x="482" y="1076" type="curve" smooth="yes"/>
      <point x="506" y="1170"/>
      <point x="510" y="1190"/>
      <point x="510" y="1198" type="curve" smooth="yes"/>
      <point x="510" y="1232"/>
      <point x="486" y="1252"/>
      <point x="452" y="1252" type="curve" smooth="yes"/>
      <point x="446" y="1252"/>
      <point x="390" y="1250"/>
      <point x="372" y="1180" type="curve" smooth="yes"/>
      <point x="346" y="1074"/>
      <point x="320" y="968"/>
      <point x="294" y="862" type="curve"/>
      <point x="106" y="862" type="line" smooth="yes"/>
      <point x="66" y="862"/>
      <point x="46" y="862"/>
      <point x="46" y="824" type="curve" smooth="yes"/>
      <point x="46" y="800"/>
      <point x="62" y="800"/>
      <point x="102" y="800" type="curve" smooth="yes"/>
      <point x="278" y="800" type="line"/>
      <point x="208" y="523"/>
      <point x="170" y="374"/>
      <point x="150" y="288" type="curve" smooth="yes"/>
      <point x="128" y="198"/>
      <point x="126" y="180"/>
      <point x="126" y="162" type="curve" smooth="yes"/>
      <point x="126" y="54"/>
      <point x="202" y="-22"/>
      <point x="310" y="-22" type="curve" smooth="yes"/>
      <point x="514" y="-22"/>
      <point x="628" y="270"/>
      <point x="628" y="286" type="curve" smooth="yes"/>
      <point x="628" y="306"/>
      <point x="612" y="306"/>
      <point x="604" y="306" type="curve" smooth="yes"/>
      <point x="586" y="306"/>
      <point x="584" y="300"/>
      <point x="574" y="278" type="curve" smooth="yes"/>
      <point x="488" y="70"/>
      <point x="382" y="22"/>
      <point x="314" y="22" type="curve" smooth="yes"/>
      <point x="272" y="22"/>
      <point x="252" y="48"/>
      <point x="252" y="114" type="curve" smooth="yes"/>
      <point x="252" y="162"/>
      <point x="256" y="176"/>
      <point x="264" y="210" type="curve" smooth="yes"/>
    </contour>
  </outline>
</glyph>
<glyph name="w" format="2">
  <advance width="1430"/>
  <unicode hex="0077"/>
  <outline>
    <contour>
      <point x="708" y="358" type="curve" smooth="yes"/>
      <point x="694" y="298"/>
      <point x="690" y="262"/>
      <point x="690" y="226" type="curve" smooth="yes"/>
      <point x="690" y="204"/>
      <point x="690" y="200"/>
      <point x="692" y="190" type="curve"/>
      <point x="646" y="84"/>
      <point x="586" y="22"/>
      <point x="508" y="22" type="curve" smooth="yes"/>
      <point x="348" y="22"/>
      <point x="348" y="170"/>
      <point x="348" y="204" type="curve" smooth="yes"/>
      <point x="348" y="268"/>
      <point x="358" y="346"/>
      <point x="452" y="592" type="curve" smooth="yes"/>
      <point x="474" y="652"/>
      <point x="486" y="680"/>
      <point x="486" y="720" type="curve" smooth="yes"/>
      <point x="486" y="810"/>
      <point x="420" y="884"/>
      <point x="322" y="884" type="curve" smooth="yes"/>
      <point x="132" y="884"/>
      <point x="58" y="594"/>
      <point x="58" y="576" type="curve" smooth="yes"/>
      <point x="58" y="556"/>
      <point x="78" y="556"/>
      <point x="82" y="556" type="curve" smooth="yes"/>
      <point x="102" y="556"/>
      <point x="104" y="560"/>
      <point x="114" y="592" type="curve" smooth="yes"/>
      <point x="168" y="778"/>
      <point x="246" y="840"/>
      <point x="316" y="840" type="curve" smooth="yes"/>
      <point x="334" y="840"/>
      <point x="366" y="838"/>
      <point x="366" y="774" type="curve" smooth="yes"/>
      <point x="366" y="724"/>
      <point x="344" y="668"/>
      <point x="330" y="634" type="curve" smooth="yes"/>
      <point x="242" y="398"/>
      <point x="218" y="306"/>
      <point x="218" y="230" type="curve" smooth="yes"/>
      <point x="218" y="48"/>
      <point x="352" y="-22"/>
      <point x="502" y="-22" type="curve" smooth="yes"/>
      <point x="536" y="-22"/>
      <point x="630" y="-22"/>
      <point x="710" y="118" type="curve"/>
      <point x="762" y="-10"/>
      <point x="900" y="-22"/>
      <point x="960" y="-22" type="curve" smooth="yes"/>
      <point x="1110" y="-22"/>
      <point x="1198" y="104"/>
      <point x="1250" y="224" type="curve" smooth="yes"/>
      <point x="1318" y="380"/>
      <point x="1382" y="648"/>
      <point x="1382" y="744" type="curve" smooth="yes"/>
      <point x="1382" y="854"/>
      <point x="1328" y="884"/>
      <point x="1294" y="884" type="curve" smooth="yes"/>
      <point x="1244" y="884"/>
      <point x="1194" y="832"/>
      <point x="1194" y="788" type="curve" smooth="yes"/>
      <point x="1194" y="762"/>
      <point x="1206" y="750"/>
      <point x="1224" y="734" type="curve"/>
      <point x="1246" y="712"/>
      <point x="1296" y="660"/>
      <point x="1296" y="564" type="curve" smooth="yes"/>
      <point x="1296" y="496"/>
      <point x="1238" y="300"/>
      <point x="1186" y="198" type="curve" smooth="yes"/>
      <point x="1134" y="92"/>
      <point x="1064" y="22"/>
      <point x="966" y="22" type="curve" smooth="yes"/>
      <point x="872" y="22"/>
      <point x="818" y="82"/>
      <point x="818" y="196" type="curve" smooth="yes"/>
      <point x="818" y="252"/>
      <point x="832" y="314"/>
      <point x="840" y="342" type="curve" smooth="yes"/>
      <point x="868" y="454"/>
      <point x="896" y="566"/>
      <point x="924" y="678" type="curve" smooth="yes"/>
      <point x="934" y="722"/>
      <point x="954" y="796"/>
      <point x="954" y="808" type="curve" smooth="yes"/>
      <point x="954" y="844"/>
      <point x="926" y="862"/>
      <point x="896" y="862" type="curve" smooth="yes"/>
      <point x="872" y="862"/>
      <point x="836" y="846"/>
      <point x="822" y="806" type="curve"/>
      <point x="820" y="801"/>
      <point x="807" y="751"/>
      <point x="790" y="685" type="curve" smooth="yes"/>
      <point x="760" y="565"/>
      <point x="717" y="392"/>
    </contour>
  </outline>
</glyph>
<glyph name="y" format="2">
  <advance width="980"/>
  <unicode hex="0079"/>
  <outline>
    <contour>
      <point x="662" y="68" type="line"/>
      <point x="636" y="-36"/>
      <point x="612" y="-134"/>
      <point x="532" y="-240" type="curve" smooth="yes"/>
      <point x="480" y="-308"/>
      <point x="404" y="-366"/>
      <point x="312" y="-366" type="curve" smooth="yes"/>
      <point x="284" y="-366"/>
      <point x="194" y="-360"/>
      <point x="160" y="-282" type="curve"/>
      <point x="224" y="-288"/>
      <point x="286" y="-246"/>
      <point x="286" y="-176" type="curve" smooth="yes"/>
      <point x="286" y="-114"/>
      <point x="232" y="-106"/>
      <point x="212" y="-106" type="curve" smooth="yes"/>
      <point x="166" y="-106"/>
      <point x="100" y="-138"/>
      <point x="100" y="-236" type="curve" smooth="yes"/>
      <point x="100" y="-336"/>
      <point x="188" y="-410"/>
      <point x="312" y="-410" type="curve" smooth="yes"/>
      <point x="518" y="-410"/>
      <point x="724" y="-228"/>
      <point x="780" y="-2" type="curve" smooth="yes"/>
      <point x="972" y="762" type="line" smooth="yes"/>
      <point x="980" y="790"/>
      <point x="980" y="794"/>
      <point x="980" y="808" type="curve" smooth="yes"/>
      <point x="980" y="844"/>
      <point x="952" y="862"/>
      <point x="922" y="862" type="curve" smooth="yes"/>
      <point x="902" y="862"/>
      <point x="870" y="850"/>
      <point x="852" y="820" type="curve"/>
      <point x="848" y="810"/>
      <point x="832" y="748"/>
      <point x="824" y="712" type="curve" smooth="yes"/>
      <point x="810" y="660"/>
      <point x="796" y="606"/>
      <point x="784" y="552" type="curve" smooth="yes"/>
      <point x="754" y="432"/>
      <point x="724" y="312"/>
      <point x="694" y="192" type="curve" smooth="yes"/>
      <point x="686" y="162"/>
      <point x="600" y="22"/>
      <point x="468" y="22" type="curve" smooth="yes"/>
      <point x="366" y="22"/>
      <point x="344" y="110"/>
      <point x="344" y="184" type="curve" smooth="yes"/>
      <point x="344" y="276"/>
      <point x="378" y="400"/>
      <point x="446" y="576" type="curve" smooth="yes"/>
      <point x="478" y="658"/>
      <point x="486" y="680"/>
      <point x="486" y="720" type="curve" smooth="yes"/>
      <point x="486" y="810"/>
      <point x="422" y="884"/>
      <point x="322" y="884" type="curve" smooth="yes"/>
      <point x="132" y="884"/>
      <point x="58" y="594"/>
      <point x="58" y="576" type="curve" smooth="yes"/>
      <point x="58" y="556"/>
      <point x="78" y="556"/>
      <point x="82" y="556" type="curve" smooth="yes"/>
      <point x="102" y="556"/>
      <point x="104" y="560"/>
      <point x="114" y="592" type="curve" smooth="yes"/>
      <point x="168" y="780"/>
      <point x="248" y="840"/>
      <point x="316" y="840" type="curve" smooth="yes"/>
      <point x="332" y="840"/>
      <point x="366" y="840"/>
      <point x="366" y="776" type="curve" smooth="yes"/>
      <point x="366" y="726"/>
      <point x="346" y="674"/>
      <point x="332" y="636" type="curve" smooth="yes"/>
      <point x="252" y="424"/>
      <point x="216" y="310"/>
      <point x="216" y="216" type="curve" smooth="yes"/>
      <point x="216" y="38"/>
      <point x="342" y="-22"/>
      <point x="460" y="-22" type="curve" smooth="yes"/>
      <point x="538" y="-22"/>
      <point x="606" y="12"/>
      <point x="662" y="68" type="curve"/>
    </contour>
  </outline>
</glyph>
